<?xml version="1.0" standalone="no"?>
<!DOCTYPE svg PUBLIC "-//W3C//DTD SVG 20010904//EN"
 "http://www.w3.org/TR/2001/REC-SVG-20010904/DTD/svg10.dtd">
<svg version="1.0" xmlns="http://www.w3.org/2000/svg"
 width="1148.000000pt" height="1148.000000pt" viewBox="0 0 1148.000000 1148.000000"
 preserveAspectRatio="xMidYMid meet">
<metadata>
Created by potrace 1.16, written by Peter Selinger 2001-2019
</metadata>
<g transform="translate(0.000000,1148.000000) scale(0.100000,-0.100000)"
fill="#000000" stroke="none">
<path d="M560 9940 l0 -980 980 0 980 0 0 980 0 980 -980 0 -980 0 0 -980z
m1665 0 l0 -685 -685 0 -685 0 -3 675 c-1 371 0 681 3 688 3 10 146 12 687 10
l683 -3 0 -685z"/>
<path d="M1120 9940 l0 -420 420 0 420 0 0 420 0 420 -420 0 -420 0 0 -420z"/>
<path d="M2800 10640 l0 -280 140 0 140 0 0 -140 0 -140 -140 0 -140 0 0 -560
0 -560 140 0 140 0 0 -280 0 -280 -280 0 -280 0 0 140 0 140 -140 0 -140 0 0
-140 0 -140 -280 0 -280 0 0 140 0 140 -140 0 -140 0 0 -280 0 -280 140 0 140
0 0 -140 0 -140 -280 0 -280 0 0 280 0 280 -140 0 -140 0 0 -420 0 -420 -140
0 -140 0 0 -140 0 -140 140 0 140 0 0 -280 0 -280 -140 0 -140 0 0 -140 0
-140 140 0 140 0 0 140 0 140 140 0 140 0 0 280 0 280 -140 0 -140 0 0 140 0
140 420 0 420 0 0 140 0 140 140 0 140 0 0 -140 0 -140 140 0 140 0 0 -140 0
-140 -140 0 -140 0 0 -140 0 -140 -140 0 -140 0 0 140 0 140 -140 0 -140 0 0
-140 0 -140 140 0 140 0 0 -140 0 -140 -140 0 -140 0 0 -280 0 -280 -280 0
-280 0 0 -140 0 -140 140 0 140 0 0 -140 0 -140 -140 0 -140 0 0 -280 0 -280
-140 0 -140 0 0 -140 0 -140 140 0 140 0 0 -280 0 -280 -140 0 -140 0 0 -140
0 -140 140 0 140 0 0 140 0 140 140 0 140 0 0 -280 0 -280 140 0 140 0 0 -420
0 -420 140 0 140 0 0 140 0 140 280 0 280 0 0 -140 0 -140 280 0 280 0 0 -140
0 -140 140 0 140 0 0 -420 0 -420 -140 0 -140 0 0 -140 0 -140 140 0 140 0 0
-140 0 -140 140 0 140 0 0 420 0 420 140 0 140 0 0 140 0 140 -140 0 -140 0 0
280 0 280 -280 0 -280 0 0 140 0 140 -280 0 -280 0 0 140 0 140 420 0 420 0 0
-140 0 -140 140 0 140 0 0 140 0 140 420 0 420 0 0 -140 0 -140 -140 0 -140 0
0 -140 0 -140 -140 0 -140 0 0 -140 0 -140 280 0 280 0 0 -140 0 -140 -140 0
-140 0 0 -140 0 -140 140 0 140 0 0 140 0 140 140 0 140 0 0 -280 0 -280 -280
0 -280 0 0 -140 0 -140 -140 0 -140 0 0 -140 0 -140 140 0 140 0 0 140 0 140
140 0 140 0 0 -280 0 -280 -420 0 -420 0 0 -140 0 -140 420 0 420 0 0 140 0
140 420 0 420 0 0 -140 0 -140 140 0 140 0 0 140 0 140 -140 0 -140 0 0 280 0
280 -280 0 -280 0 0 140 0 140 140 0 140 0 0 280 0 280 280 0 280 0 0 -140 0
-140 -140 0 -140 0 0 -140 0 -140 140 0 140 0 0 -280 0 -280 280 0 280 0 0
-140 0 -140 140 0 140 0 0 280 0 280 140 0 140 0 0 -280 0 -280 280 0 280 0 0
-140 0 -140 140 0 140 0 0 140 0 140 140 0 140 0 0 -140 0 -140 140 0 140 0 0
280 0 280 -140 0 -140 0 0 280 0 280 140 0 140 0 0 -140 0 -140 140 0 140 0 0
-420 0 -420 280 0 280 0 0 280 0 280 140 0 140 0 0 280 0 280 140 0 140 0 0
-140 0 -140 140 0 140 0 0 -140 0 -140 -140 0 -140 0 0 -140 0 -140 140 0 140
0 0 -140 0 -140 140 0 140 0 0 140 0 140 -140 0 -140 0 0 140 0 140 280 0 280
0 0 140 0 140 280 0 280 0 0 -140 0 -140 140 0 140 0 0 980 0 980 -140 0 -140
0 0 140 0 140 140 0 140 0 0 840 0 840 -140 0 -140 0 0 280 0 280 140 0 140 0
0 840 0 840 -140 0 -140 0 0 140 0 140 140 0 140 0 0 560 0 560 -280 0 -280 0
0 -140 0 -140 -140 0 -140 0 0 140 0 140 -420 0 -420 0 0 -140 0 -140 -280 0
-280 0 0 140 0 140 -420 0 -420 0 0 140 0 140 140 0 140 0 0 140 0 140 140 0
140 0 0 -140 0 -140 140 0 140 0 0 280 0 280 -140 0 -140 0 0 140 0 140 -140
0 -140 0 0 140 0 140 280 0 280 0 0 420 0 420 -420 0 -420 0 0 -280 0 -280
140 0 140 0 0 -140 0 -140 -140 0 -140 0 0 -140 0 -140 140 0 140 0 0 -280 0
-280 -140 0 -140 0 0 -140 0 -140 -140 0 -140 0 0 140 0 140 -140 0 -140 0 0
140 0 140 -140 0 -140 0 0 -140 0 -140 -140 0 -140 0 0 280 0 280 140 0 140 0
0 280 0 280 140 0 140 0 0 -280 0 -280 140 0 140 0 0 560 0 560 -280 0 -280 0
0 -140 0 -140 -140 0 -140 0 0 140 0 140 -280 0 -280 0 0 -140 0 -140 280 0
280 0 0 -420 0 -420 -140 0 -140 0 0 140 0 140 -140 0 -140 0 0 140 0 140
-140 0 -140 0 0 140 0 140 -140 0 -140 0 0 140 0 140 -140 0 -140 0 0 -420 0
-420 -420 0 -420 0 0 140 0 140 -140 0 -140 0 0 280 0 280 -280 0 -280 0 0
-280 0 -280 140 0 140 0 0 -140 0 -140 -280 0 -280 0 0 140 0 140 -140 0 -140
0 0 140 0 140 140 0 140 0 0 140 0 140 -280 0 -280 0 0 -280z m1680 -700 l0
-140 140 0 140 0 0 -280 0 -280 140 0 140 0 0 -280 0 -280 140 0 140 0 0 420
0 420 -140 0 -140 0 0 140 0 140 140 0 140 0 0 140 0 140 140 0 140 0 0 -140
0 -140 -140 0 -140 0 0 -140 0 -140 140 0 140 0 0 -420 0 -420 280 0 280 0 0
-140 0 -140 140 0 140 0 0 -140 0 -140 280 0 280 0 0 140 0 140 -140 0 -140 0
0 140 0 140 -140 0 -140 0 0 280 0 280 -140 0 -140 0 0 -140 0 -140 -140 0
-140 0 0 140 0 140 140 0 140 0 0 140 0 140 140 0 140 0 0 -140 0 -140 140 0
140 0 0 -140 0 -140 140 0 140 0 0 140 0 140 140 0 140 0 0 -140 0 -140 -140
0 -140 0 0 -140 0 -140 140 0 140 0 0 -140 0 -140 140 0 140 0 0 140 0 140
140 0 140 0 0 -140 0 -140 140 0 140 0 0 -140 0 -140 140 0 140 0 0 140 0 140
140 0 140 0 0 -140 0 -140 140 0 140 0 0 -140 0 -140 280 0 280 0 0 -140 0
-140 140 0 140 0 0 140 0 140 140 0 140 0 0 140 0 140 -420 0 -420 0 0 140 0
140 420 0 420 0 0 -140 0 -140 140 0 140 0 0 140 0 140 140 0 140 0 0 -140 0
-140 -140 0 -140 0 0 -560 0 -560 -140 0 -140 0 0 -140 0 -140 280 0 280 0 0
-140 0 -140 -420 0 -420 0 0 -140 0 -140 140 0 140 0 0 -140 0 -140 140 0 140
0 0 140 0 140 140 0 140 0 0 -140 0 -140 -140 0 -140 0 0 -140 0 -140 -140 0
-140 0 0 -140 0 -140 140 0 140 0 0 -280 0 -280 140 0 140 0 0 -420 0 -420
-280 0 -280 0 0 140 0 140 -140 0 -140 0 0 -280 0 -280 -140 0 -140 0 0 140 0
140 -140 0 -140 0 0 140 0 140 -140 0 -140 0 0 140 0 140 280 0 280 0 0 -140
0 -140 140 0 140 0 0 280 0 280 -280 0 -280 0 0 140 0 140 280 0 280 0 0 140
0 140 -280 0 -280 0 0 140 0 140 -280 0 -280 0 0 -140 0 -140 140 0 140 0 0
-140 0 -140 -140 0 -140 0 0 -420 0 -420 -420 0 -420 0 0 -280 0 -280 -140 0
-140 0 0 -280 0 -280 280 0 280 0 0 420 0 420 140 0 140 0 0 -280 0 -280 280
0 280 0 0 -140 0 -140 -280 0 -280 0 0 -140 0 -140 -140 0 -140 0 0 -140 0
-140 -140 0 -140 0 0 -280 0 -280 -280 0 -280 0 0 140 0 140 -140 0 -140 0 0
-420 0 -420 -280 0 -280 0 0 140 0 140 -140 0 -140 0 0 -140 0 -140 -140 0
-140 0 0 140 0 140 140 0 140 0 0 280 0 280 -420 0 -420 0 0 140 0 140 140 0
140 0 0 140 0 140 -280 0 -280 0 0 140 0 140 280 0 280 0 0 -140 0 -140 140 0
140 0 0 280 0 280 140 0 140 0 0 -560 0 -560 140 0 140 0 0 -280 0 -280 140 0
140 0 0 420 0 420 420 0 420 0 0 140 0 140 -420 0 -420 0 0 140 0 140 -140 0
-140 0 0 140 0 140 140 0 140 0 0 -140 0 -140 280 0 280 0 0 420 0 420 -280 0
-280 0 0 280 0 280 420 0 420 0 0 -140 0 -140 140 0 140 0 0 140 0 140 140 0
140 0 0 140 0 140 -1120 0 -1120 0 0 -140 0 -140 -140 0 -140 0 0 140 0 140
-140 0 -140 0 0 -280 0 -280 -140 0 -140 0 0 140 0 140 -140 0 -140 0 0 140 0
140 -140 0 -140 0 0 -280 0 -280 140 0 140 0 0 -280 0 -280 140 0 140 0 0 140
0 140 140 0 140 0 0 -140 0 -140 -140 0 -140 0 0 -140 0 -140 -140 0 -140 0 0
-140 0 -140 -140 0 -140 0 0 -140 0 -140 140 0 140 0 0 -140 0 -140 -140 0
-140 0 0 140 0 140 -140 0 -140 0 0 140 0 140 140 0 140 0 0 140 0 140 -140 0
-140 0 0 140 0 140 -420 0 -420 0 0 -140 0 -140 -140 0 -140 0 0 140 0 140
-420 0 -420 0 0 -140 0 -140 -280 0 -280 0 0 140 0 140 280 0 280 0 0 140 0
140 140 0 140 0 0 140 0 140 -280 0 -280 0 0 -140 0 -140 -280 0 -280 0 0 140
0 140 -140 0 -140 0 0 280 0 280 -140 0 -140 0 0 140 0 140 140 0 140 0 0 140
0 140 140 0 140 0 0 140 0 140 140 0 140 0 0 140 0 140 140 0 140 0 0 140 0
140 280 0 280 0 0 -140 0 -140 -140 0 -140 0 0 -140 0 -140 280 0 280 0 0 420
0 420 -420 0 -420 0 0 140 0 140 560 0 560 0 0 280 0 280 -140 0 -140 0 0
-140 0 -140 -280 0 -280 0 0 140 0 140 280 0 280 0 0 140 0 140 140 0 140 0 0
140 0 140 -140 0 -140 0 0 140 0 140 140 0 140 0 0 140 0 140 280 0 280 0 0
-140 0 -140 140 0 140 0 0 -420 0 -420 140 0 140 0 0 140 0 140 140 0 140 0 0
140 0 140 -140 0 -140 0 0 140 0 140 140 0 140 0 0 140 0 140 140 0 140 0 0
420 0 420 -140 0 -140 0 0 -140 0 -140 -140 0 -140 0 0 -280 0 -280 -140 0
-140 0 0 280 0 280 -140 0 -140 0 0 -140 0 -140 -140 0 -140 0 0 140 0 140
-140 0 -140 0 0 420 0 420 140 0 140 0 0 -140 0 -140 140 0 140 0 0 140 0 140
140 0 140 0 0 -420 0 -420 140 0 140 0 0 140 0 140 140 0 140 0 0 280 0 280
-140 0 -140 0 0 140 0 140 140 0 140 0 0 -140z m1680 0 l0 -140 -140 0 -140 0
0 140 0 140 140 0 140 0 0 -140z m-3640 -1680 l0 -140 -140 0 -140 0 0 -140 0
-140 140 0 140 0 0 -140 0 -140 -140 0 -140 0 0 140 0 140 -140 0 -140 0 0
140 0 140 140 0 140 0 0 140 0 140 140 0 140 0 0 -140z m3920 -3920 l0 -140
-140 0 -140 0 0 -140 0 -140 140 0 140 0 0 -140 0 -140 -140 0 -140 0 0 140 0
140 -140 0 -140 0 0 140 0 140 140 0 140 0 0 140 0 140 140 0 140 0 0 -140z
m2520 -560 l0 -140 -140 0 -140 0 0 140 0 140 140 0 140 0 0 -140z m1400 -420
l0 -280 -140 0 -140 0 0 -140 0 -140 140 0 140 0 0 -140 0 -140 -140 0 -140 0
0 -280 0 -280 140 0 140 0 0 140 0 140 140 0 140 0 0 -280 0 -280 -280 0 -280
0 0 -140 0 -140 -140 0 -140 0 0 140 0 140 140 0 140 0 0 140 0 140 -140 0
-140 0 0 700 0 700 140 0 140 0 0 140 0 140 140 0 140 0 0 -280z m-840 -140
l0 -140 -140 0 -140 0 0 140 0 140 140 0 140 0 0 -140z m0 -840 l0 -420 -420
0 -420 0 0 420 0 420 420 0 420 0 0 -420z m-1120 -420 l0 -280 140 0 140 0 0
-280 0 -280 -140 0 -140 0 0 140 0 140 -140 0 -140 0 0 420 0 420 140 0 140 0
0 -280z m-2800 -140 l0 -140 -140 0 -140 0 0 140 0 140 140 0 140 0 0 -140z"/>
<path d="M3360 9100 l0 -140 140 0 140 0 0 140 0 140 -140 0 -140 0 0 -140z"/>
<path d="M5600 8260 l0 -140 -140 0 -140 0 0 -140 0 -140 -140 0 -140 0 0 140
0 140 -140 0 -140 0 0 -140 0 -140 140 0 140 0 0 -280 0 -280 -140 0 -140 0 0
140 0 140 -140 0 -140 0 0 -140 0 -140 140 0 140 0 0 -280 0 -280 280 0 280 0
0 140 0 140 -140 0 -140 0 0 140 0 140 280 0 280 0 0 -140 0 -140 140 0 140 0
0 -140 0 -140 140 0 140 0 0 140 0 140 -140 0 -140 0 0 140 0 140 -140 0 -140
0 0 140 0 140 -140 0 -140 0 0 140 0 140 280 0 280 0 0 140 0 140 140 0 140 0
0 -420 0 -420 140 0 140 0 0 -140 0 -140 140 0 140 0 0 -140 0 -140 140 0 140
0 0 280 0 280 -280 0 -280 0 0 420 0 420 -140 0 -140 0 0 140 0 140 -280 0
-280 0 0 -140z"/>
<path d="M3360 7980 l0 -140 140 0 140 0 0 140 0 140 -140 0 -140 0 0 -140z"/>
<path d="M7000 7980 l0 -140 -140 0 -140 0 0 -140 0 -140 280 0 280 0 0 -140
0 -140 140 0 140 0 0 -140 0 -140 -140 0 -140 0 0 -140 0 -140 420 0 420 0 0
280 0 280 140 0 140 0 0 140 0 140 140 0 140 0 0 -140 0 -140 140 0 140 0 0
-280 0 -280 -140 0 -140 0 0 -420 0 -420 280 0 280 0 0 -140 0 -140 280 0 280
0 0 280 0 280 -140 0 -140 0 0 -140 0 -140 -140 0 -140 0 0 280 0 280 -140 0
-140 0 0 140 0 140 280 0 280 0 0 -140 0 -140 140 0 140 0 0 280 0 280 140 0
140 0 0 140 0 140 -140 0 -140 0 0 -140 0 -140 -140 0 -140 0 0 140 0 140
-140 0 -140 0 0 140 0 140 -280 0 -280 0 0 280 0 280 -140 0 -140 0 0 -280 0
-280 -140 0 -140 0 0 -140 0 -140 -140 0 -140 0 0 280 0 280 -140 0 -140 0 0
140 0 140 -280 0 -280 0 0 -140z"/>
<path d="M3080 7420 l0 -140 140 0 140 0 0 -280 0 -280 140 0 140 0 0 140 0
140 140 0 140 0 0 140 0 140 -140 0 -140 0 0 140 0 140 -280 0 -280 0 0 -140z"/>
<path d="M6813 6243 c-52 -5 -58 -28 -10 -38 61 -12 69 -17 83 -51 13 -31 20
-194 9 -206 -3 -2 -31 2 -63 10 -133 35 -254 -32 -300 -167 -17 -49 -15 -160
5 -216 20 -59 85 -128 138 -145 54 -18 127 -8 175 24 49 32 50 32 50 0 l0 -26
88 7 c48 4 91 11 96 15 13 13 -3 30 -28 30 -12 0 -31 6 -42 14 -18 14 -19 32
-22 385 l-3 371 -67 -2 c-37 -1 -86 -3 -109 -5z m18 -328 c59 -31 69 -63 69
-228 0 -147 0 -148 -26 -172 -74 -69 -178 -45 -224 51 -19 39 -22 58 -18 142
3 80 8 105 28 142 39 71 108 97 171 65z"/>
<path d="M3663 6186 c-84 -27 -170 -102 -211 -183 -69 -138 -50 -336 44 -461
40 -52 122 -101 195 -116 62 -12 64 -13 75 -54 17 -58 51 -99 102 -123 38 -19
56 -21 134 -17 62 4 95 10 105 21 26 26 6 39 -50 32 -63 -7 -111 14 -144 64
-37 54 -31 82 23 110 64 34 138 119 164 189 12 31 24 91 27 132 12 173 -68
324 -207 388 -67 31 -191 40 -257 18z m196 -50 c44 -23 97 -89 117 -147 15
-43 19 -83 19 -189 0 -133 -1 -137 -33 -203 -36 -73 -74 -108 -139 -127 -101
-30 -195 19 -246 128 -28 60 -31 78 -35 184 -4 99 -1 127 17 187 23 74 62 130
116 163 37 22 143 25 184 4z"/>
<path d="M5495 6187 c-100 -34 -168 -94 -217 -195 -32 -64 -33 -71 -33 -187 0
-114 2 -123 32 -187 63 -134 164 -198 313 -198 69 0 86 4 141 33 91 47 170
163 124 181 -10 3 -20 -5 -30 -23 -45 -88 -112 -131 -206 -131 -75 0 -116 18
-167 74 -98 107 -117 321 -42 471 36 71 74 104 143 122 69 18 120 3 169 -47
33 -36 78 -130 78 -165 0 -9 10 -15 25 -15 l25 0 0 130 0 130 -24 0 c-13 0
-29 -6 -35 -14 -10 -12 -19 -11 -59 7 -58 25 -180 33 -237 14z"/>
<path d="M4227 6173 c-11 -11 14 -33 37 -33 12 0 31 -6 42 -14 18 -14 19 -30
22 -303 3 -325 2 -330 -63 -349 -22 -6 -40 -17 -40 -25 0 -11 30 -15 158 -17
149 -2 157 -2 157 17 0 14 -10 21 -37 26 -62 11 -63 14 -63 161 l0 134 39 0
c37 0 42 -3 103 -87 36 -49 89 -124 119 -168 l54 -80 99 0 c71 0 101 4 103 12
3 7 -4 16 -14 19 -89 30 -120 63 -301 315 -11 16 -7 21 42 44 93 44 135 117
122 210 -9 57 -62 115 -122 133 -44 13 -445 18 -457 5z m377 -48 c46 -22 70
-69 71 -135 0 -105 -67 -170 -177 -170 l-58 0 0 160 0 160 66 0 c38 0 79 -6
98 -15z"/>
<path d="M6102 5955 c-97 -30 -160 -119 -169 -238 -8 -95 16 -167 75 -226 53
-53 101 -71 185 -71 152 0 263 145 243 318 -20 171 -169 269 -334 217z m146
-45 c53 -33 76 -96 77 -210 0 -159 -47 -240 -142 -240 -61 0 -104 43 -128 125
-23 79 -16 203 14 263 39 76 113 102 179 62z"/>
<path d="M7295 5956 c-22 -8 -59 -35 -82 -61 -56 -62 -77 -126 -71 -225 8
-145 87 -235 217 -247 95 -9 189 36 226 107 13 25 13 29 -3 35 -12 4 -26 -4
-47 -28 -40 -46 -64 -57 -123 -57 -89 0 -151 68 -167 182 l-7 48 173 2 174 3
-2 57 c-4 116 -71 187 -185 194 -40 3 -78 -1 -103 -10z m138 -47 c30 -23 50
-80 45 -124 l-3 -30 -115 0 -115 0 3 35 c11 110 113 176 185 119z"/>
<path d="M7930 5954 c-19 -8 -47 -27 -62 -41 l-28 -27 0 32 c0 42 -13 46 -105
37 -63 -6 -75 -10 -75 -25 0 -11 10 -19 28 -23 17 -4 33 -16 40 -32 14 -30 17
-362 3 -383 -4 -7 -21 -16 -37 -21 -16 -4 -29 -14 -29 -22 0 -11 25 -14 135
-14 112 0 135 3 135 15 0 8 -14 17 -32 21 -62 12 -63 15 -63 199 0 184 3 193
64 224 36 18 46 13 46 -24 0 -50 66 -69 94 -28 52 74 -26 151 -114 112z"/>
<path d="M1960 5320 l0 -280 -140 0 -140 0 0 140 0 140 -140 0 -140 0 0 -140
0 -140 140 0 140 0 0 -140 0 -140 -140 0 -140 0 0 -140 0 -140 140 0 140 0 0
-140 0 -140 140 0 140 0 0 140 0 140 280 0 280 0 0 -140 0 -140 140 0 140 0 0
-140 0 -140 140 0 140 0 0 280 0 280 140 0 140 0 0 140 0 140 -140 0 -140 0 0
-140 0 -140 -280 0 -280 0 0 140 0 140 140 0 140 0 0 140 0 140 -140 0 -140 0
0 140 0 140 -140 0 -140 0 0 140 0 140 -140 0 -140 0 0 -280z m560 -420 l0
-140 -140 0 -140 0 0 140 0 140 140 0 140 0 0 -140z m-560 -280 l0 -140 -140
0 -140 0 0 140 0 140 140 0 140 0 0 -140z"/>
<path d="M9800 4900 l0 -140 140 0 140 0 0 140 0 140 -140 0 -140 0 0 -140z"/>
<path d="M3640 4480 l0 -280 -140 0 -140 0 0 -140 0 -140 140 0 140 0 0 140 0
140 140 0 140 0 0 140 0 140 140 0 140 0 0 140 0 140 -280 0 -280 0 0 -280z"/>
<path d="M8960 2380 l0 -140 140 0 140 0 0 140 0 140 -140 0 -140 0 0 -140z"/>
<path d="M8960 9940 l0 -980 980 0 980 0 0 980 0 980 -980 0 -980 0 0 -980z
m1665 0 l0 -685 -685 0 -685 0 -3 675 c-1 371 0 681 3 688 3 10 146 12 687 10
l683 -3 0 -685z"/>
<path d="M9520 9940 l0 -420 420 0 420 0 0 420 0 420 -420 0 -420 0 0 -420z"/>
<path d="M560 3500 l0 -140 140 0 140 0 0 -140 0 -140 -140 0 -140 0 0 -140 0
-140 280 0 280 0 0 280 0 280 -140 0 -140 0 0 140 0 140 -140 0 -140 0 0 -140z"/>
<path d="M560 1540 l0 -980 980 0 980 0 0 980 0 980 -980 0 -980 0 0 -980z
m1665 0 l0 -685 -685 0 -685 0 -3 675 c-1 371 0 681 3 688 3 10 146 12 687 10
l683 -3 0 -685z"/>
<path d="M1120 1540 l0 -420 420 0 420 0 0 420 0 420 -420 0 -420 0 0 -420z"/>
<path d="M10360 700 l0 -140 280 0 280 0 0 140 0 140 -280 0 -280 0 0 -140z"/>
</g>
</svg>
